<?xml version="1.0" encoding="UTF-8"?>
<svg version="1.1" xmlns="http://www.w3.org/2000/svg" width="255" height="255">
<path d="M0 0 C1.29612976 0.00334608 1.29612976 0.00334608 2.61844397 0.00675976 C3.529225 0.00519977 4.44000604 0.00363978 5.3783865 0.00203252 C8.45471893 -0.00198162 11.5310027 0.00121375 14.60733557 0.00434887 C16.80287725 0.00299502 18.9984187 0.00121517 21.19395971 -0.00096118 C27.17518748 -0.00553736 33.15639809 -0.0037452 39.13762617 -0.0005821 C45.38188363 0.00194055 51.62613957 -0.00039577 57.87039709 -0.00196826 C69.031529 -0.00390712 80.19265458 -0.00078934 91.35378498 0.00429107 C101.48339037 0.00875911 111.61298429 0.00798318 121.74258947 0.00337231 C133.49213077 -0.00197339 145.24166648 -0.00397432 156.99120903 -0.00101542 C163.21584902 0.00054779 169.44048111 0.00073992 175.6651206 -0.00255191 C181.5156351 -0.00542948 187.36612786 -0.00345705 193.21664 0.00234234 C195.37059699 0.00367056 197.52455581 0.0032748 199.6785121 0.00107968 C202.60553603 -0.00162943 205.53248908 0.00174635 208.45950842 0.00675976 C209.32359493 0.00452904 210.18768144 0.00229832 211.07795238 0 C216.92482637 0.01959358 216.92482637 0.01959358 218.03897619 1.13374341 C218.13678844 2.59890644 218.16529367 4.06876163 218.16595984 5.53718579 C218.16877966 6.4879147 218.17159948 7.43864361 218.17450476 8.41818249 C218.17146841 9.99538319 218.17146841 9.99538319 218.16837072 11.60444653 C218.1709992 13.25548634 218.1709992 13.25548634 218.17368078 14.93988049 C218.17810187 18.59826724 218.1751604 22.25660611 218.17178869 25.91499341 C218.17246166 28.44465659 218.17343162 30.9743197 218.17468786 33.50398266 C218.17616518 38.8136819 218.17410377 44.12336378 218.16934729 49.43305981 C218.1639047 55.57980299 218.16566737 61.726513 218.17117369 67.87325537 C218.17625059 73.77591904 218.17572325 79.67857237 218.17279196 85.58123791 C218.17212243 88.09797176 218.172952 90.61470646 218.17527151 93.13143933 C218.17779652 96.64199615 218.17395957 100.1524883 218.16837072 103.66304028 C218.17039495 104.71450741 218.17241919 105.76597455 218.17450476 106.84930432 C218.17168493 107.80003323 218.16886511 108.75076214 218.16595984 109.73030102 C218.1653943 110.97692139 218.1653943 110.97692139 218.16481733 112.24872601 C218.03897619 114.13374341 218.03897619 114.13374341 217.03897619 115.13374341 C214.1713188 115.2339034 211.32767042 115.26813148 208.45950842 115.26072705 C207.54872738 115.26228704 206.63794635 115.26384703 205.69956589 115.26545429 C202.62323346 115.26946843 199.54694968 115.26627306 196.47061682 115.26313794 C194.27507514 115.26449179 192.07953369 115.26627164 189.88399267 115.268448 C183.9027649 115.27302417 177.9215543 115.27123201 171.94032621 115.26806891 C165.69606875 115.26554626 159.45181281 115.26788258 153.20755529 115.26945508 C142.04642338 115.27139393 130.8852978 115.26827615 119.72416741 115.26319574 C109.59456202 115.2587277 99.46496809 115.25950363 89.33536291 115.2641145 C77.58582161 115.2694602 65.8362859 115.27146113 54.08674335 115.26850224 C47.86210336 115.26693902 41.63747127 115.2667469 35.41283178 115.27003872 C29.56231728 115.27291629 23.71182453 115.27094386 17.86131239 115.26514447 C15.70735539 115.26381625 13.55339658 115.26421202 11.39944029 115.26640713 C8.47241636 115.26911624 5.54546331 115.26574046 2.61844397 115.26072705 C1.75435746 115.26295777 0.89027095 115.26518849 0 115.26748681 C-5.84687399 115.24789323 -5.84687399 115.24789323 -6.96102381 114.13374341 C-7.05883606 112.66858037 -7.08734129 111.19872518 -7.08800745 109.73030102 C-7.09082727 108.77957211 -7.0936471 107.8288432 -7.09655237 106.84930432 C-7.09452814 105.79783719 -7.09250391 104.74637005 -7.09041834 103.66304028 C-7.09217066 102.56234707 -7.09392298 101.46165387 -7.0957284 100.32760632 C-7.10014949 96.66921957 -7.09720801 93.0108807 -7.09383631 89.35249341 C-7.09450927 86.82283022 -7.09547923 84.29316711 -7.09673548 81.76350415 C-7.0982128 76.45380491 -7.09615139 71.14412303 -7.0913949 65.834427 C-7.08595231 59.68768382 -7.08771499 53.54097381 -7.09322131 47.39423144 C-7.09829821 41.49156777 -7.09777086 35.58891444 -7.09483957 29.6862489 C-7.09417005 27.16951505 -7.09499961 24.65278035 -7.09731913 22.13604748 C-7.09984414 18.62549066 -7.09600719 15.11499851 -7.09041834 11.60444653 C-7.09244257 10.5529794 -7.0944668 9.50151227 -7.09655237 8.41818249 C-7.09373255 7.46745358 -7.09091272 6.51672467 -7.08800745 5.53718579 C-7.08763042 4.70610554 -7.0872534 3.8750253 -7.08686495 3.0187608 C-6.80501714 -1.20313374 -3.4660011 0.01161499 0 0 Z " fill="#E0E0E0" transform="translate(23.961023807525635,62.8662565946579)"/>
<path d="M0 0 C1.29612976 0.00334608 1.29612976 0.00334608 2.61844397 0.00675976 C3.529225 0.00519977 4.44000604 0.00363978 5.3783865 0.00203252 C8.45471893 -0.00198162 11.5310027 0.00121375 14.60733557 0.00434887 C16.80287725 0.00299502 18.9984187 0.00121517 21.19395971 -0.00096118 C27.17518748 -0.00553736 33.15639809 -0.0037452 39.13762617 -0.0005821 C45.38188363 0.00194055 51.62613957 -0.00039577 57.87039709 -0.00196826 C69.031529 -0.00390712 80.19265458 -0.00078934 91.35378498 0.00429107 C101.48339037 0.00875911 111.61298429 0.00798318 121.74258947 0.00337231 C133.49213077 -0.00197339 145.24166648 -0.00397432 156.99120903 -0.00101542 C163.21584902 0.00054779 169.44048111 0.00073992 175.6651206 -0.00255191 C181.5156351 -0.00542948 187.36612786 -0.00345705 193.21664 0.00234234 C195.37059699 0.00367056 197.52455581 0.0032748 199.6785121 0.00107968 C202.60553603 -0.00162943 205.53248908 0.00174635 208.45950842 0.00675976 C209.32359493 0.00452904 210.18768144 0.00229832 211.07795238 0 C216.92482637 0.01959358 216.92482637 0.01959358 218.03897619 1.13374341 C218.13678844 2.59890644 218.16529367 4.06876163 218.16595984 5.53718579 C218.16877966 6.4879147 218.17159948 7.43864361 218.17450476 8.41818249 C218.17146841 9.99538319 218.17146841 9.99538319 218.16837072 11.60444653 C218.1709992 13.25548634 218.1709992 13.25548634 218.17368078 14.93988049 C218.17810187 18.59826724 218.1751604 22.25660611 218.17178869 25.91499341 C218.17246166 28.44465659 218.17343162 30.9743197 218.17468786 33.50398266 C218.17616518 38.8136819 218.17410377 44.12336378 218.16934729 49.43305981 C218.1639047 55.57980299 218.16566737 61.726513 218.17117369 67.87325537 C218.17625059 73.77591904 218.17572325 79.67857237 218.17279196 85.58123791 C218.17212243 88.09797176 218.172952 90.61470646 218.17527151 93.13143933 C218.17779652 96.64199615 218.17395957 100.1524883 218.16837072 103.66304028 C218.17039495 104.71450741 218.17241919 105.76597455 218.17450476 106.84930432 C218.17168493 107.80003323 218.16886511 108.75076214 218.16595984 109.73030102 C218.1653943 110.97692139 218.1653943 110.97692139 218.16481733 112.24872601 C218.03897619 114.13374341 218.03897619 114.13374341 217.03897619 115.13374341 C214.1713188 115.2339034 211.32767042 115.26813148 208.45950842 115.26072705 C207.54872738 115.26228704 206.63794635 115.26384703 205.69956589 115.26545429 C202.62323346 115.26946843 199.54694968 115.26627306 196.47061682 115.26313794 C194.27507514 115.26449179 192.07953369 115.26627164 189.88399267 115.268448 C183.9027649 115.27302417 177.9215543 115.27123201 171.94032621 115.26806891 C165.69606875 115.26554626 159.45181281 115.26788258 153.20755529 115.26945508 C142.04642338 115.27139393 130.8852978 115.26827615 119.72416741 115.26319574 C109.59456202 115.2587277 99.46496809 115.25950363 89.33536291 115.2641145 C77.58582161 115.2694602 65.8362859 115.27146113 54.08674335 115.26850224 C47.86210336 115.26693902 41.63747127 115.2667469 35.41283178 115.27003872 C29.56231728 115.27291629 23.71182453 115.27094386 17.86131239 115.26514447 C15.70735539 115.26381625 13.55339658 115.26421202 11.39944029 115.26640713 C8.47241636 115.26911624 5.54546331 115.26574046 2.61844397 115.26072705 C1.75435746 115.26295777 0.89027095 115.26518849 0 115.26748681 C-5.84687399 115.24789323 -5.84687399 115.24789323 -6.96102381 114.13374341 C-7.05883606 112.66858037 -7.08734129 111.19872518 -7.08800745 109.73030102 C-7.09082727 108.77957211 -7.0936471 107.8288432 -7.09655237 106.84930432 C-7.09452814 105.79783719 -7.09250391 104.74637005 -7.09041834 103.66304028 C-7.09217066 102.56234707 -7.09392298 101.46165387 -7.0957284 100.32760632 C-7.10014949 96.66921957 -7.09720801 93.0108807 -7.09383631 89.35249341 C-7.09450927 86.82283022 -7.09547923 84.29316711 -7.09673548 81.76350415 C-7.0982128 76.45380491 -7.09615139 71.14412303 -7.0913949 65.834427 C-7.08595231 59.68768382 -7.08771499 53.54097381 -7.09322131 47.39423144 C-7.09829821 41.49156777 -7.09777086 35.58891444 -7.09483957 29.6862489 C-7.09417005 27.16951505 -7.09499961 24.65278035 -7.09731913 22.13604748 C-7.09984414 18.62549066 -7.09600719 15.11499851 -7.09041834 11.60444653 C-7.09244257 10.5529794 -7.0944668 9.50151227 -7.09655237 8.41818249 C-7.09373255 7.46745358 -7.09091272 6.51672467 -7.08800745 5.53718579 C-7.08763042 4.70610554 -7.0872534 3.8750253 -7.08686495 3.0187608 C-6.80501714 -1.20313374 -3.4660011 0.01161499 0 0 Z M4.03897619 11.13374341 C4.03897619 41.82374341 4.03897619 72.51374341 4.03897619 104.13374341 C70.36897619 104.13374341 136.69897619 104.13374341 205.03897619 104.13374341 C205.03897619 73.44374341 205.03897619 42.75374341 205.03897619 11.13374341 C138.70897619 11.13374341 72.37897619 11.13374341 4.03897619 11.13374341 Z " fill="#161616" transform="translate(23.961023807525635,62.8662565946579)"/>
<path d="M0 0 C0.73170017 -0.00638882 1.46340034 -0.01277764 2.21727324 -0.01936007 C4.66432953 -0.03459718 7.10976329 -0.0141592 9.5567627 0.00622559 C11.31291744 0.00272398 13.06906902 -0.00293505 14.82521057 -0.0105896 C19.59183769 -0.02484158 24.35788822 -0.00777204 29.12446022 0.01569557 C34.11226821 0.03579716 39.10005209 0.02992537 44.08789062 0.02758789 C52.46416742 0.02764147 60.84021869 0.04740286 69.21643066 0.07946777 C78.90098039 0.11636087 88.58523466 0.12514339 98.26984549 0.11817026 C107.58546025 0.11186535 116.90097368 0.12261935 126.21656799 0.14213562 C130.18137557 0.1503111 134.14613136 0.15301889 138.11094666 0.15144348 C142.77971972 0.15056463 147.44821195 0.16478083 152.11691093 0.19067001 C153.83056209 0.1978331 155.54424313 0.19991475 157.25790596 0.19655228 C159.59680269 0.19283834 161.93487944 0.20758121 164.27368164 0.22705078 C166.23703838 0.23264385 166.23703838 0.23264385 168.2400589 0.23834991 C171.86254195 0.64691593 173.74076488 1.45713367 176.63684082 3.62145996 C178.56547921 6.16375602 178.64586373 7.40491014 178.51184082 10.62145996 C177.51472783 14.04013308 176.36441972 15.3898045 173.63684082 17.62145996 C170.70930689 19.08522693 167.76899501 18.76022191 164.5604248 18.75085449 C163.82349553 18.75256999 163.08656626 18.75428549 162.32730579 18.75605297 C159.84582727 18.76041149 157.36441418 18.75740236 154.88293457 18.75427246 C153.10988336 18.75550175 151.33683237 18.75707122 149.56378174 18.75895691 C143.73395257 18.76288611 137.90416256 18.75530683 132.07434082 18.74645996 C131.08361698 18.74518978 130.09289314 18.7439196 129.07214737 18.74261093 C116.51003815 18.72645352 103.94802129 18.69471311 91.38597584 18.65190601 C84.90441337 18.63025592 78.42287533 18.61483629 71.94128513 18.60457993 C61.53327535 18.58808137 51.12562494 18.55392589 40.71781254 18.48615646 C35.78556181 18.45425026 30.85359368 18.43030271 25.92123413 18.42645264 C21.28420107 18.42227203 16.64791452 18.39441151 12.01111603 18.34815407 C10.31009489 18.3351967 8.60898517 18.33069817 6.90792084 18.33527184 C4.58648136 18.34014172 2.26732423 18.3143829 -0.05383301 18.28088379 C-2.00160393 18.27089104 -2.00160393 18.27089104 -3.98872375 18.26069641 C-8.2444102 17.4545201 -9.73381353 16.00253168 -12.36315918 12.62145996 C-12.98815918 9.12145996 -12.98815918 9.12145996 -12.36315918 5.62145996 C-8.59219218 0.76022693 -6.05610999 -0.00329668 0 0 Z " fill="#000000" transform="translate(48.3631591796875,141.3785400390625)"/>
<path d="M0 0 C2.375 0.8125 2.375 0.8125 3.375 2.8125 C3.60672827 5.35865009 3.79394529 7.88646225 3.9375 10.4375 C3.98068359 11.14390625 4.02386719 11.8503125 4.06835938 12.578125 C4.17444751 14.32268537 4.27522889 16.06756697 4.375 17.8125 C4.79797363 17.36334229 5.22094727 16.91418457 5.65673828 16.45141602 C7.59111036 14.41274732 9.54509032 12.39397507 11.5 10.375 C12.16515625 9.66794922 12.8303125 8.96089844 13.515625 8.23242188 C18.55966545 3.06475298 18.55966545 3.06475298 22.74609375 1.76953125 C25.375 1.8125 25.375 1.8125 27.3125 2.9375 C28.375 4.8125 28.375 4.8125 28.25976562 7.13964844 C27.06649394 10.74448797 25.20931336 12.05932912 22.28125 14.453125 C9.20603917 25.00437227 9.20603917 25.00437227 2.69921875 39.81640625 C2.39173244 45.13561802 2.64681915 50.37270814 3.32885742 55.65551758 C3.34408447 56.36732178 3.35931152 57.07912598 3.375 57.8125 C1.375 59.8125 1.375 59.8125 -1.125 60.0625 C-3.625 59.8125 -3.625 59.8125 -5.625 57.8125 C-5.85205078 54.83154297 -5.85205078 54.83154297 -5.8203125 51.0546875 C-5.8174826 50.39163605 -5.81465271 49.72858459 -5.81173706 49.04544067 C-5.80053435 46.92594417 -5.77543051 44.80686896 -5.75 42.6875 C-5.73997028 41.25130818 -5.73084441 39.81510975 -5.72265625 38.37890625 C-5.700595 34.85663372 -5.66606494 31.33460797 -5.625 27.8125 C-6.23762695 27.51827148 -6.85025391 27.22404297 -7.48144531 26.92089844 C-10.07023995 25.58227342 -12.1237088 23.91228704 -14.375 22.0625 C-17.57097433 19.44416844 -20.79379179 16.97919399 -24.1875 14.625 C-26.6787396 12.76917779 -27.52779814 12.03248316 -28.8125 9.125 C-28.625 6.8125 -28.625 6.8125 -27.5625 4.9375 C-25.625 3.8125 -25.625 3.8125 -22.93359375 3.92578125 C-18.69352118 5.06214072 -16.09768467 7.12187018 -12.75 9.875 C-11.86054688 10.58366211 -11.86054688 10.58366211 -10.953125 11.30664062 C-9.50219872 12.46504145 -8.06242828 13.63739171 -6.625 14.8125 C-6.58761719 13.98105469 -6.55023438 13.14960937 -6.51171875 12.29296875 C-6.44597656 11.20628906 -6.38023437 10.11960937 -6.3125 9 C-6.25449219 7.92105469 -6.19648438 6.84210938 -6.13671875 5.73046875 C-5.625 2.8125 -5.625 2.8125 -4.24609375 0.9140625 C-2.625 -0.1875 -2.625 -0.1875 0 0 Z " fill="#000000" transform="translate(199.625,77.1875)"/>
<path d="M0 0 C2.73131849 -0.30093418 5.23725549 -0.4042157 7.97167969 -0.38095093 C8.80502209 -0.3856309 9.63836449 -0.39031087 10.49695969 -0.39513266 C13.30542395 -0.40715366 16.11340662 -0.39759788 18.921875 -0.38818359 C20.92875454 -0.39224614 22.93563185 -0.39758623 24.94250488 -0.40411377 C30.40521186 -0.41783084 35.86774953 -0.41247064 41.33045959 -0.40297651 C47.03639191 -0.3954026 52.74230933 -0.40241919 58.44824219 -0.40713501 C68.03192763 -0.4125992 77.61554381 -0.40538357 87.19921875 -0.39111328 C98.29304429 -0.37478553 109.38670444 -0.38007357 120.48052597 -0.3965925 C129.99051203 -0.41018849 139.50044819 -0.41213627 149.01044083 -0.40427649 C154.69688886 -0.39958958 160.38325906 -0.39900298 166.06970215 -0.40888596 C171.41470617 -0.41752594 176.75949613 -0.41158822 182.10447693 -0.39420319 C184.07095483 -0.39022242 186.03745062 -0.39139936 188.00392151 -0.39799118 C190.67896774 -0.40613425 193.35331892 -0.39597348 196.02832031 -0.38095093 C197.20816561 -0.39098918 197.20816561 -0.39098918 198.41184616 -0.40123022 C200.57354736 -0.37752342 200.57354736 -0.37752342 204 0 C204.99 1.485 204.99 1.485 206 3 C137.36 3 68.72 3 -2 3 C-1.34 2.01 -0.68 1.02 0 0 Z " fill="#E1E1E1" transform="translate(27,170)"/>
<path d="M0 0 C0.79019531 0.03609375 1.58039063 0.0721875 2.39453125 0.109375 C3.28205078 0.17898437 3.28205078 0.17898437 4.1875 0.25 C5.125 2.875 5.125 2.875 5.1875 6.25 C2.92183983 8.62618018 0.8176452 10.31764843 -1.8125 12.25 C-2.90552658 13.10532314 -3.99510638 13.9650612 -5.08203125 14.828125 C-10.98955011 19.51779112 -16.94209323 24.14819252 -22.9453125 28.71484375 C-24.92367609 30.27406926 -24.92367609 30.27406926 -26.8671875 32.44140625 C-28.8125 34.25 -28.8125 34.25 -31.8125 34.25 C-33.41796875 32.28125 -33.41796875 32.28125 -35 29.75 C-35.52980469 28.9146875 -36.05960937 28.079375 -36.60546875 27.21875 C-37.00378906 26.5690625 -37.40210937 25.919375 -37.8125 25.25 C-36.14583333 24 -34.47916667 22.75 -32.8125 21.5 C-32.28648193 21.10530518 -31.76046387 20.71061035 -31.21850586 20.30395508 C-28.02384704 17.90715388 -24.82738823 15.51279116 -21.62890625 13.12109375 C-20.92314453 12.59290039 -20.21738281 12.06470703 -19.49023438 11.52050781 C-18.1053052 10.48404881 -16.7199063 9.4482171 -15.33398438 8.41308594 C-14.68880859 7.93000977 -14.04363281 7.44693359 -13.37890625 6.94921875 C-12.45525269 6.26110107 -12.45525269 6.26110107 -11.51293945 5.55908203 C-10.00875319 4.40108537 -8.56872182 3.1607849 -7.140625 1.91015625 C-4.47435264 0.00887143 -3.22201306 -0.19235899 0 0 Z " fill="#E1E1E1" transform="translate(154.8125,96.75)"/>
<path d="M0 0 C1.46179306 2.66835241 2.01014664 4.13190626 2.25 7.25 C0.30151263 13.09546211 -4.13339363 15.48261829 -9 19 C-10.75793946 20.38582089 -12.50823637 21.78140251 -14.25 23.1875 C-15.06984375 23.84105469 -15.8896875 24.49460937 -16.734375 25.16796875 C-18.68702525 26.74692214 -20.59790023 28.36105481 -22.5 30 C-25 32 -25 32 -27 32 C-27 32.66 -27 33.32 -27 34 C-28.86328125 35.65625 -28.86328125 35.65625 -31.3125 37.5 C-32.11300781 38.1084375 -32.91351563 38.716875 -33.73828125 39.34375 C-38.74826679 43.0125477 -41.86729601 43.87294345 -48 43 C-50.625 41.4375 -50.625 41.4375 -52 39 C-52.31210024 35.02072199 -51.83309089 33.14649368 -49.49047852 29.92260742 C-44.43277874 24.16025667 -39.0346083 19.77200205 -32.6875 15.5 C-31.79482422 14.88125 -30.90214844 14.2625 -29.98242188 13.625 C-23.47194829 9.1573161 -23.47194829 9.1573161 -20 8 C-20 7.34 -20 6.68 -20 6 C-14.25780137 -0.51908433 -8.24428163 -0.74198535 0 0 Z M-17.25 7.4375 C-18.54111001 8.54536098 -19.83544068 9.64947859 -21.1328125 10.75 C-21.77508789 11.30042969 -22.41736328 11.85085937 -23.07910156 12.41796875 C-26.90616237 15.56989479 -31.06236657 18.23583747 -35.1953125 20.96484375 C-38.10776289 23.07819564 -40.52561846 25.39419527 -43 28 C-41.02 30.64 -39.04 33.28 -37 36 C-32.77947182 34.94486796 -31.31879041 33.87693264 -28.0625 31.125 C-26.61617187 29.91263672 -26.61617187 29.91263672 -25.140625 28.67578125 C-24.09298272 27.78475553 -23.04613247 26.89279787 -22 26 C-20.33021366 24.57870553 -18.66002078 23.15789619 -16.98901367 21.73803711 C-15.87570103 20.79138901 -14.76387005 19.84299549 -13.65356445 18.89282227 C-10.03631526 15.81469545 -6.3355319 12.96015688 -2.390625 10.31640625 C-0.59723392 8.61872987 -0.28130366 7.43327666 0 5 C-0.495 3.515 -0.495 3.515 -1 2 C-8.31977809 1.18356321 -11.8786564 2.54009849 -17.25 7.4375 Z " fill="#000000" transform="translate(160,95)"/>
<path d="M0 0 C0 32.67 0 65.34 0 99 C-1.32 98.01 -2.64 97.02 -4 96 C-4.3963524 92.90330607 -4.53634055 90.16091534 -4.50170898 87.06225586 C-4.50711197 86.14819473 -4.51251495 85.23413361 -4.51808167 84.29237366 C-4.5306055 81.26620261 -4.51405484 78.24097608 -4.49609375 75.21484375 C-4.49624864 73.11641897 -4.49773594 71.01799389 -4.50050354 68.91957092 C-4.50188913 64.52038945 -4.48930153 60.12153338 -4.46655273 55.72241211 C-4.43815033 50.07379487 -4.4409081 44.42571783 -4.45364285 38.77706051 C-4.46058562 34.44400896 -4.45282709 30.11108307 -4.44038582 25.77804756 C-4.4358589 23.69476363 -4.43554528 21.61146627 -4.43945122 19.52818108 C-4.44235015 16.62128746 -4.42592043 13.7151481 -4.40405273 10.80834961 C-4.40855438 9.94128387 -4.41305603 9.07421814 -4.41769409 8.18087769 C-4.38768005 5.78892517 -4.38768005 5.78892517 -4 2 C-1 0 -1 0 0 0 Z " fill="#E1E1E1" transform="translate(237,71)"/>
<path d="M0 0 C0.66 0 1.32 0 2 0 C1.67 1.32 1.34 2.64 1 4 C1.99 4 2.98 4 4 4 C4 2.68 4 1.36 4 0 C4.66 0 5.32 0 6 0 C6.33 1.32 6.66 2.64 7 4 C7.66 4 8.32 4 9 4 C9 7.63 9 11.26 9 15 C5.7 15 2.4 15 -1 15 C-1.02693575 12.87506859 -1.04636628 10.75004088 -1.0625 8.625 C-1.07410156 7.44164063 -1.08570312 6.25828125 -1.09765625 5.0390625 C-1 2 -1 2 0 0 Z " fill="#000000" transform="translate(107,87)"/>
<path d="M0 0 C3.78717347 1.48781815 5.77407001 3.61988409 8 7 C7.67 7.99 7.34 8.98 7 10 C0.375 11.25 0.375 11.25 -3 9 C-2.25 2.25 -2.25 2.25 0 0 Z " fill="#E1E1E1" transform="translate(114,125)"/>
<path d="M0 0 C0.33 0 0.66 0 1 0 C1 2.64 1 5.28 1 8 C1.66 8 2.32 8 3 8 C3 6.68 3 5.36 3 4 C3.66 4 4.32 4 5 4 C5 7.63 5 11.26 5 15 C4.34 15 3.68 15 3 15 C3 13.35 3 11.7 3 10 C2.34 10 1.68 10 1 10 C1 11.65 1 13.3 1 15 C-0.98 15 -2.96 15 -5 15 C-5 11.37 -5 7.74 -5 4 C-4.67 4 -4.34 4 -4 4 C-4 6.64 -4 9.28 -4 12 C-3.34 12 -2.68 12 -2 12 C-2 9.36 -2 6.72 -2 4 C-1.34 4 -0.68 4 0 4 C0 2.68 0 1.36 0 0 Z " fill="#000000" transform="translate(61,87)"/>
<path d="M0 0 C1.65 0 3.3 0 5 0 C5.02705729 1.77074917 5.04642195 3.54161711 5.0625 5.3125 C5.07410156 6.29863281 5.08570312 7.28476563 5.09765625 8.30078125 C5 11 5 11 4 14 C2.68 14 1.36 14 0 14 C0 13.01 0 12.02 0 11 C0.99 11 1.98 11 3 11 C3 10.34 3 9.68 3 9 C2.01 9 1.02 9 0 9 C0 6.03 0 3.06 0 0 Z " fill="#161616" transform="translate(89,91)"/>
<path d="M0 0 C1.32 0 2.64 0 4 0 C5.20272819 2.40545638 5.10071472 3.94996953 5.0625 6.625 C5.05347656 7.44226563 5.04445313 8.25953125 5.03515625 9.1015625 C5.02355469 9.72804688 5.01195313 10.35453125 5 11 C3.35 11 1.7 11 0 11 C0 7.37 0 3.74 0 0 Z " fill="#000000" transform="translate(72,91)"/>
<path d="M0 0 C1.32 0 2.64 0 4 0 C5.20272819 2.40545638 5.10071472 3.94996953 5.0625 6.625 C5.05347656 7.44226563 5.04445313 8.25953125 5.03515625 9.1015625 C5.02355469 9.72804688 5.01195313 10.35453125 5 11 C3.35 11 1.7 11 0 11 C0 7.37 0 3.74 0 0 Z " fill="#121212" transform="translate(117,91)"/>
<path d="M0 0 C1.32 0 2.64 0 4 0 C5.20272819 2.40545638 5.10071472 3.94996953 5.0625 6.625 C5.05347656 7.44226563 5.04445313 8.25953125 5.03515625 9.1015625 C5.02355469 9.72804688 5.01195313 10.35453125 5 11 C3.35 11 1.7 11 0 11 C0 7.37 0 3.74 0 0 Z " fill="#1B1B1B" transform="translate(100,91)"/>
<path d="M0 0 C0.33 0 0.66 0 1 0 C1 1.98 1 3.96 1 6 C1.66 6 2.32 6 3 6 C3 4.02 3 2.04 3 0 C3.66 0 4.32 0 5 0 C5.02705729 1.77074917 5.04642195 3.54161711 5.0625 5.3125 C5.07410156 6.29863281 5.08570312 7.28476563 5.09765625 8.30078125 C5 11 5 11 4 14 C3.01 14 2.02 14 1 14 C1 13.01 1 12.02 1 11 C1.66 11 2.32 11 3 11 C3 10.34 3 9.68 3 9 C2.34 9 1.68 9 1 9 C-0.4783226 6.04335481 -0.06032783 3.25770263 0 0 Z " fill="#000000" transform="translate(78,91)"/>
<path d="M0 0 C1.65 0 3.3 0 5 0 C4.125 5.75 4.125 5.75 3 8 C3.66 8 4.32 8 5 8 C5 8.99 5 9.98 5 11 C3.35 11 1.7 11 0 11 C0 9.35 0 7.7 0 6 C0.66 6 1.32 6 2 6 C2 5.01 2 4.02 2 3 C1.34 3 0.68 3 0 3 C0 2.01 0 1.02 0 0 Z " fill="#000000" transform="translate(50,91)"/>
<path d="M0 0 C1.32 0 2.64 0 4 0 C4 3.63 4 7.26 4 11 C2.68 11 1.36 11 0 11 C0 7.37 0 3.74 0 0 Z " fill="#151515" transform="translate(67,91)"/>
<path d="M0 0 C1.32 0 2.64 0 4 0 C4 0.99 4 1.98 4 3 C3.34 3 2.68 3 2 3 C2 5.64 2 8.28 2 11 C1.34 11 0.68 11 0 11 C0 7.37 0 3.74 0 0 Z " fill="#000000" transform="translate(95,91)"/>
<path d="M0 0 C0.99 0 1.98 0 3 0 C3 1.98 3 3.96 3 6 C1.68 5.67 0.36 5.34 -1 5 C-0.67 3.35 -0.34 1.7 0 0 Z " fill="#000000" transform="translate(45,91)"/>
<path d="M0 0 C1.32 0.66 2.64 1.32 4 2 C1.6875 4.0625 1.6875 4.0625 -1 6 C-1.99 5.67 -2.98 5.34 -4 5 C-3.525625 4.54625 -3.05125 4.0925 -2.5625 3.625 C-0.90972192 2.06741796 -0.90972192 2.06741796 0 0 Z " fill="#0A0A0A" transform="translate(15,240)"/>
<path d="M0 0 C0.99 0.33 1.98 0.66 3 1 C2.34 2.65 1.68 4.3 1 6 C0.34 5.67 -0.32 5.34 -1 5 C-0.67 3.35 -0.34 1.7 0 0 Z " fill="#040404" transform="translate(32,226)"/>
<path d="M0 0 C0.99 0.66 1.98 1.32 3 2 C2.01 2.33 1.02 2.66 0 3 C-0.33 3.66 -0.66 4.32 -1 5 C-1.66 4.67 -2.32 4.34 -3 4 C-2.67 3.01 -2.34 2.02 -2 1 C-1.34 0.67 -0.68 0.34 0 0 Z " fill="#090909" transform="translate(8,238)"/>
<path d="M0 0 C0.33 0.66 0.66 1.32 1 2 C0.01 3.485 0.01 3.485 -1 5 C-1.66 4.67 -2.32 4.34 -3 4 C-2.01 2.68 -1.02 1.36 0 0 Z " fill="#060606" transform="translate(14,234)"/>
<path d="M0 0 C0.99 0.33 1.98 0.66 3 1 C1.02 1.66 -0.96 2.32 -3 3 C-2.01 2.01 -1.02 1.02 0 0 Z " fill="#0C0C0C" transform="translate(24,228)"/>
<path d="M0 0 C0.66 0.33 1.32 0.66 2 1 C1.01 2.485 1.01 2.485 0 4 C-0.66 3.67 -1.32 3.34 -2 3 C-1.34 2.01 -0.68 1.02 0 0 Z " fill="#070707" transform="translate(29,232)"/>
<path d="M0 0 C0.99 0.33 1.98 0.66 3 1 C2.01 1.33 1.02 1.66 0 2 C0 1.34 0 0.68 0 0 Z " fill="#000000" transform="translate(5,244)"/>
<path d="M0 0 C0.99 0.33 1.98 0.66 3 1 C1.68 1.33 0.36 1.66 -1 2 C-0.67 1.34 -0.34 0.68 0 0 Z " fill="#000000" transform="translate(20,239)"/>
<path d="M0 0 C0.33 0.66 0.66 1.32 1 2 C0.34 1.67 -0.32 1.34 -1 1 C-0.67 0.67 -0.34 0.34 0 0 Z " fill="#000000" transform="translate(16,235)"/>
<path d="M0 0 C2 1 2 1 2 1 Z " fill="#000000" transform="translate(13,239)"/>
<path d="M0 0 C2 1 2 1 2 1 Z " fill="#000000" transform="translate(18,238)"/>
<path d="M0 0 C2 1 2 1 2 1 Z " fill="#020202" transform="translate(24,237)"/>
<path d="M0 0 C2 1 2 1 2 1 Z " fill="#000000" transform="translate(19,231)"/>
<path d="M0 0 C2 1 2 1 2 1 Z " fill="#000000" transform="translate(28,226)"/>
<path d="" fill="#000000" transform="translate(0,0)"/>
<path d="" fill="#333333" transform="translate(0,0)"/>
<path d="" fill="#333333" transform="translate(0,0)"/>
<path d="" fill="#333333" transform="translate(0,0)"/>
<path d="" fill="#000000" transform="translate(0,0)"/>
<path d="" fill="#000000" transform="translate(0,0)"/>
<path d="" fill="#333333" transform="translate(0,0)"/>
<path d="" fill="#000000" transform="translate(0,0)"/>
<path d="" fill="#000000" transform="translate(0,0)"/>
<path d="" fill="#333333" transform="translate(0,0)"/>
<path d="" fill="#000000" transform="translate(0,0)"/>
<path d="" fill="#000000" transform="translate(0,0)"/>
<path d="" fill="#000000" transform="translate(0,0)"/>
<path d="" fill="#000000" transform="translate(0,0)"/>
<path d="" fill="#000000" transform="translate(0,0)"/>
<path d="" fill="#000000" transform="translate(0,0)"/>
<path d="" fill="#333333" transform="translate(0,0)"/>
<path d="" fill="#010101" transform="translate(0,0)"/>
<path d="" fill="#333333" transform="translate(0,0)"/>
<path d="" fill="#000000" transform="translate(0,0)"/>
<path d="" fill="#333333" transform="translate(0,0)"/>
<path d="" fill="#000000" transform="translate(0,0)"/>
<path d="" fill="#333333" transform="translate(0,0)"/>
<path d="" fill="#000000" transform="translate(0,0)"/>
<path d="" fill="#333333" transform="translate(0,0)"/>
<path d="" fill="#333333" transform="translate(0,0)"/>
<path d="" fill="#333333" transform="translate(0,0)"/>
<path d="" fill="#000000" transform="translate(0,0)"/>
<path d="" fill="#000000" transform="translate(0,0)"/>
<path d="" fill="#333333" transform="translate(0,0)"/>
<path d="" fill="#000000" transform="translate(0,0)"/>
<path d="" fill="#000000" transform="translate(0,0)"/>
<path d="" fill="#000000" transform="translate(0,0)"/>
<path d="" fill="#000000" transform="translate(0,0)"/>
<path d="" fill="#000000" transform="translate(0,0)"/>
<path d="" fill="#000000" transform="translate(0,0)"/>
<path d="" fill="#000000" transform="translate(0,0)"/>
<path d="" fill="#000000" transform="translate(0,0)"/>
<path d="" fill="#010101" transform="translate(0,0)"/>
<path d="" fill="#000000" transform="translate(0,0)"/>
<path d="" fill="#333333" transform="translate(0,0)"/>
<path d="" fill="#333333" transform="translate(0,0)"/>
<path d="" fill="#333333" transform="translate(0,0)"/>
<path d="" fill="#010101" transform="translate(0,0)"/>
<path d="" fill="#000000" transform="translate(0,0)"/>
<path d="" fill="#000000" transform="translate(0,0)"/>
<path d="" fill="#000000" transform="translate(0,0)"/>
<path d="" fill="#010101" transform="translate(0,0)"/>
<path d="" fill="#000000" transform="translate(0,0)"/>
<path d="" fill="#333333" transform="translate(0,0)"/>
<path d="" fill="#000000" transform="translate(0,0)"/>
<path d="" fill="#000000" transform="translate(0,0)"/>
<path d="" fill="#000000" transform="translate(0,0)"/>
<path d="" fill="#000000" transform="translate(0,0)"/>
<path d="" fill="#000000" transform="translate(0,0)"/>
<path d="" fill="#333333" transform="translate(0,0)"/>
<path d="" fill="#000000" transform="translate(0,0)"/>
<path d="" fill="#333333" transform="translate(0,0)"/>
<path d="" fill="#000000" transform="translate(0,0)"/>
<path d="" fill="#000000" transform="translate(0,0)"/>
<path d="" fill="#000000" transform="translate(0,0)"/>
<path d="" fill="#000000" transform="translate(0,0)"/>
<path d="" fill="#333333" transform="translate(0,0)"/>
<path d="" fill="#333333" transform="translate(0,0)"/>
<path d="" fill="#333333" transform="translate(0,0)"/>
<path d="" fill="#333333" transform="translate(0,0)"/>
<path d="" fill="#010101" transform="translate(0,0)"/>
<path d="" fill="#000000" transform="translate(0,0)"/>
<path d="" fill="#333333" transform="translate(0,0)"/>
<path d="" fill="#333333" transform="translate(0,0)"/>
<path d="" fill="#000000" transform="translate(0,0)"/>
<path d="" fill="#333333" transform="translate(0,0)"/>
<path d="" fill="#333333" transform="translate(0,0)"/>
<path d="" fill="#010101" transform="translate(0,0)"/>
<path d="" fill="#000000" transform="translate(0,0)"/>
<path d="" fill="#000000" transform="translate(0,0)"/>
<path d="" fill="#000000" transform="translate(0,0)"/>
<path d="" fill="#000000" transform="translate(0,0)"/>
<path d="" fill="#000000" transform="translate(0,0)"/>
<path d="" fill="#333333" transform="translate(0,0)"/>
<path d="" fill="#333333" transform="translate(0,0)"/>
<path d="" fill="#000000" transform="translate(0,0)"/>
<path d="" fill="#000000" transform="translate(0,0)"/>
<path d="" fill="#000000" transform="translate(0,0)"/>
<path d="" fill="#000000" transform="translate(0,0)"/>
<path d="" fill="#000000" transform="translate(0,0)"/>
<path d="" fill="#333333" transform="translate(0,0)"/>
<path d="" fill="#333333" transform="translate(0,0)"/>
<path d="" fill="#000000" transform="translate(0,0)"/>
<path d="" fill="#000000" transform="translate(0,0)"/>
<path d="" fill="#000000" transform="translate(0,0)"/>
<path d="" fill="#333333" transform="translate(0,0)"/>
<path d="" fill="#000000" transform="translate(0,0)"/>
<path d="" fill="#333333" transform="translate(0,0)"/>
<path d="" fill="#333333" transform="translate(0,0)"/>
<path d="" fill="#333333" transform="translate(0,0)"/>
<path d="" fill="#000000" transform="translate(0,0)"/>
<path d="" fill="#000000" transform="translate(0,0)"/>
<path d="" fill="#000000" transform="translate(0,0)"/>
<path d="" fill="#000000" transform="translate(0,0)"/>
<path d="" fill="#010101" transform="translate(0,0)"/>
<path d="" fill="#000000" transform="translate(0,0)"/>
<path d="" fill="#000000" transform="translate(0,0)"/>
<path d="" fill="#000000" transform="translate(0,0)"/>
<path d="" fill="#000000" transform="translate(0,0)"/>
<path d="" fill="#000000" transform="translate(0,0)"/>
<path d="" fill="#000000" transform="translate(0,0)"/>
<path d="" fill="#000000" transform="translate(0,0)"/>
<path d="" fill="#333333" transform="translate(0,0)"/>
<path d="" fill="#333333" transform="translate(0,0)"/>
<path d="" fill="#000000" transform="translate(0,0)"/>
</svg>
